<svg width="170" height="48" viewBox="0 0 170 48" fill="none" xmlns="http://www.w3.org/2000/svg">
<g filter="url(#filter0_b_75_126)">
<rect width="170" height="48" rx="4" fill="white" fill-opacity="0.05"/>
<path d="M41.8929 20.7907L46.2988 18.1149C46.8302 17.7922 47.5 18.1877 47.5 18.8242V24.1758C47.5 24.8123 46.8302 25.2078 46.2988 24.8851L41.8929 22.2093C41.369 21.8911 41.369 21.1089 41.8929 20.7907Z" fill="#333333"/>
<g filter="url(#filter1_bi_75_126)">
<path d="M44.6501 26.4944C44.5834 26.4559 44.5 26.504 44.5 26.581V27.8226C44.5 28.7318 43.4952 29.2969 42.6982 28.8359L36.0894 25.0133C35.3035 24.5587 35.3035 23.4413 36.0894 22.9867L42.6982 19.1641C43.4952 18.7031 44.5 19.2682 44.5 20.1774V21.419C44.5 21.496 44.5834 21.5441 44.6501 21.5056L48.6982 19.1641C49.4952 18.7031 50.5 19.2682 50.5 20.1774V27.8226C50.5 28.7318 49.4952 29.2969 48.6982 28.8359L44.6501 26.4944Z" fill="#F2F2F2"/>
<path d="M44.4 26.581V27.8226C44.4 28.6519 43.4812 29.1732 42.7483 28.7493L36.1395 24.9267C35.4202 24.5107 35.4202 23.4893 36.1395 23.0733L42.7483 19.2507C43.4812 18.8268 44.4 19.3481 44.4 20.1774V21.419C44.4 21.5731 44.5668 21.6693 44.7001 21.5921L48.7483 19.2507C49.4812 18.8268 50.4 19.3481 50.4 20.1774V27.8226C50.4 28.6519 49.4812 29.1732 48.7483 28.7493L44.7001 26.4079C44.5668 26.3307 44.4 26.4269 44.4 26.581Z" stroke="#F2F2F2" stroke-width="0.2"/>
</g>
<path d="M65.264 31V18.4H70.394C71.078 18.4 71.696 18.574 72.248 18.922C72.812 19.258 73.262 19.72 73.598 20.308C73.934 20.896 74.102 21.55 74.102 22.27C74.102 22.99 73.934 23.644 73.598 24.232C73.262 24.82 72.812 25.294 72.248 25.654C71.696 26.002 71.078 26.176 70.394 26.176H67.208V31H65.264ZM67.208 24.304H70.358C70.682 24.304 70.976 24.214 71.24 24.034C71.504 23.842 71.714 23.596 71.87 23.296C72.038 22.984 72.122 22.642 72.122 22.27C72.122 21.898 72.038 21.562 71.87 21.262C71.714 20.962 71.504 20.722 71.24 20.542C70.976 20.362 70.682 20.272 70.358 20.272H67.208V24.304ZM76.2042 31V21.55H78.0762V24.52L77.8962 23.8C78.0282 23.344 78.2502 22.93 78.5622 22.558C78.8862 22.186 79.2522 21.892 79.6602 21.676C80.0802 21.46 80.5122 21.352 80.9562 21.352C81.1602 21.352 81.3522 21.37 81.5322 21.406C81.7242 21.442 81.8742 21.484 81.9822 21.532L81.4962 23.548C81.3522 23.488 81.1902 23.44 81.0102 23.404C80.8422 23.356 80.6742 23.332 80.5062 23.332C80.1822 23.332 79.8702 23.398 79.5702 23.53C79.2822 23.65 79.0242 23.824 78.7962 24.052C78.5802 24.268 78.4062 24.526 78.2742 24.826C78.1422 25.114 78.0762 25.432 78.0762 25.78V31H76.2042ZM87.4697 31.18C86.4977 31.18 85.6337 30.976 84.8777 30.568C84.1337 30.148 83.5457 29.578 83.1137 28.858C82.6937 28.138 82.4837 27.31 82.4837 26.374C82.4837 25.63 82.6037 24.952 82.8437 24.34C83.0837 23.728 83.4137 23.2 83.8337 22.756C84.2657 22.3 84.7757 21.952 85.3637 21.712C85.9637 21.46 86.6117 21.334 87.3077 21.334C87.9197 21.334 88.4897 21.454 89.0177 21.694C89.5457 21.922 90.0017 22.24 90.3857 22.648C90.7817 23.056 91.0817 23.542 91.2857 24.106C91.5017 24.658 91.6037 25.264 91.5917 25.924L91.5737 26.716H83.8517L83.4377 25.24H89.9717L89.7017 25.546V25.114C89.6657 24.718 89.5337 24.364 89.3057 24.052C89.0777 23.74 88.7897 23.494 88.4417 23.314C88.0937 23.134 87.7157 23.044 87.3077 23.044C86.6597 23.044 86.1137 23.17 85.6697 23.422C85.2257 23.662 84.8897 24.022 84.6617 24.502C84.4337 24.97 84.3197 25.552 84.3197 26.248C84.3197 26.908 84.4577 27.484 84.7337 27.976C85.0097 28.456 85.3997 28.828 85.9037 29.092C86.4077 29.356 86.9897 29.488 87.6497 29.488C88.1177 29.488 88.5497 29.41 88.9457 29.254C89.3537 29.098 89.7917 28.816 90.2597 28.408L91.1957 29.722C90.9077 30.01 90.5537 30.262 90.1337 30.478C89.7257 30.694 89.2877 30.868 88.8197 31C88.3637 31.12 87.9137 31.18 87.4697 31.18ZM96.5268 31L92.5308 21.55H94.5288L97.4088 28.624L97.0668 28.786L100.145 21.55H102.053L97.8588 31H96.5268ZM104.055 31V21.55H105.909V31H104.055ZM104.955 19.462C104.559 19.462 104.253 19.36 104.037 19.156C103.821 18.952 103.713 18.664 103.713 18.292C103.713 17.944 103.821 17.662 104.037 17.446C104.265 17.23 104.571 17.122 104.955 17.122C105.351 17.122 105.657 17.224 105.873 17.428C106.089 17.632 106.197 17.92 106.197 18.292C106.197 18.64 106.083 18.922 105.855 19.138C105.639 19.354 105.339 19.462 104.955 19.462ZM113.007 31.18C112.083 31.18 111.255 30.97 110.523 30.55C109.803 30.118 109.233 29.536 108.813 28.804C108.393 28.06 108.183 27.214 108.183 26.266C108.183 25.318 108.393 24.478 108.813 23.746C109.233 23.002 109.803 22.42 110.523 22C111.255 21.568 112.083 21.352 113.007 21.352C113.919 21.352 114.735 21.568 115.455 22C116.187 22.42 116.763 23.002 117.183 23.746C117.603 24.478 117.813 25.318 117.813 26.266C117.813 27.214 117.603 28.06 117.183 28.804C116.763 29.536 116.187 30.118 115.455 30.55C114.735 30.97 113.919 31.18 113.007 31.18ZM113.007 29.488C113.571 29.488 114.075 29.35 114.519 29.074C114.963 28.786 115.311 28.402 115.563 27.922C115.815 27.43 115.935 26.878 115.923 26.266C115.935 25.642 115.815 25.09 115.563 24.61C115.311 24.118 114.963 23.734 114.519 23.458C114.075 23.182 113.571 23.044 113.007 23.044C112.443 23.044 111.933 23.188 111.477 23.476C111.033 23.752 110.685 24.136 110.433 24.628C110.181 25.108 110.061 25.654 110.073 26.266C110.061 26.878 110.181 27.43 110.433 27.922C110.685 28.402 111.033 28.786 111.477 29.074C111.933 29.35 112.443 29.488 113.007 29.488ZM123.145 31.18C122.473 31.18 121.885 31.024 121.381 30.712C120.889 30.4 120.505 29.962 120.229 29.398C119.965 28.834 119.833 28.162 119.833 27.382V21.55H121.687V26.878C121.687 27.43 121.771 27.91 121.939 28.318C122.119 28.714 122.371 29.02 122.695 29.236C123.031 29.452 123.433 29.56 123.901 29.56C124.249 29.56 124.567 29.506 124.855 29.398C125.143 29.278 125.389 29.116 125.593 28.912C125.809 28.708 125.977 28.462 126.097 28.174C126.217 27.886 126.277 27.574 126.277 27.238V21.55H128.131V31H126.277V29.02L126.601 28.804C126.457 29.248 126.211 29.65 125.863 30.01C125.527 30.37 125.125 30.658 124.657 30.874C124.189 31.078 123.685 31.18 123.145 31.18ZM133.882 31.18C133.09 31.18 132.376 31.042 131.74 30.766C131.104 30.49 130.576 30.082 130.156 29.542L131.416 28.462C131.776 28.882 132.166 29.188 132.586 29.38C133.018 29.56 133.504 29.65 134.044 29.65C134.26 29.65 134.458 29.626 134.638 29.578C134.83 29.518 134.992 29.434 135.124 29.326C135.268 29.218 135.376 29.092 135.448 28.948C135.52 28.792 135.556 28.624 135.556 28.444C135.556 28.132 135.442 27.88 135.214 27.688C135.094 27.604 134.902 27.514 134.638 27.418C134.386 27.31 134.056 27.202 133.648 27.094C132.952 26.914 132.382 26.71 131.938 26.482C131.494 26.254 131.152 25.996 130.912 25.708C130.732 25.48 130.6 25.234 130.516 24.97C130.432 24.694 130.39 24.394 130.39 24.07C130.39 23.674 130.474 23.314 130.642 22.99C130.822 22.654 131.062 22.366 131.362 22.126C131.674 21.874 132.034 21.682 132.442 21.55C132.862 21.418 133.306 21.352 133.774 21.352C134.218 21.352 134.656 21.412 135.088 21.532C135.532 21.652 135.94 21.826 136.312 22.054C136.684 22.282 136.996 22.552 137.248 22.864L136.186 24.034C135.958 23.806 135.706 23.608 135.43 23.44C135.166 23.26 134.896 23.122 134.62 23.026C134.344 22.93 134.092 22.882 133.864 22.882C133.612 22.882 133.384 22.906 133.18 22.954C132.976 23.002 132.802 23.074 132.658 23.17C132.526 23.266 132.424 23.386 132.352 23.53C132.28 23.674 132.244 23.836 132.244 24.016C132.256 24.172 132.292 24.322 132.352 24.466C132.424 24.598 132.52 24.712 132.64 24.808C132.772 24.904 132.97 25.006 133.234 25.114C133.498 25.222 133.834 25.324 134.242 25.42C134.842 25.576 135.334 25.75 135.718 25.942C136.114 26.122 136.426 26.332 136.654 26.572C136.894 26.8 137.062 27.064 137.158 27.364C137.254 27.664 137.302 28 137.302 28.372C137.302 28.912 137.146 29.398 136.834 29.83C136.534 30.25 136.126 30.58 135.61 30.82C135.094 31.06 134.518 31.18 133.882 31.18Z" fill="white" fill-opacity="0.65"/>
<rect x="0.5" y="0.5" width="169" height="47" rx="3.5" stroke="url(#paint0_linear_75_126)"/>
</g>
<defs>
<filter id="filter0_b_75_126" x="-4" y="-4" width="178" height="56" filterUnits="userSpaceOnUse" color-interpolation-filters="sRGB">
<feFlood flood-opacity="0" result="BackgroundImageFix"/>
<feGaussianBlur in="BackgroundImageFix" stdDeviation="2"/>
<feComposite in2="SourceAlpha" operator="in" result="effect1_backgroundBlur_75_126"/>
<feBlend mode="normal" in="SourceGraphic" in2="effect1_backgroundBlur_75_126" result="shape"/>
</filter>
<filter id="filter1_bi_75_126" x="32.5" y="16" width="21" height="16" filterUnits="userSpaceOnUse" color-interpolation-filters="sRGB">
<feFlood flood-opacity="0" result="BackgroundImageFix"/>
<feGaussianBlur in="BackgroundImageFix" stdDeviation="1.5"/>
<feComposite in2="SourceAlpha" operator="in" result="effect1_backgroundBlur_75_126"/>
<feBlend mode="normal" in="SourceGraphic" in2="effect1_backgroundBlur_75_126" result="shape"/>
<feColorMatrix in="SourceAlpha" type="matrix" values="0 0 0 0 0 0 0 0 0 0 0 0 0 0 0 0 0 0 127 0" result="hardAlpha"/>
<feOffset dy="0.5"/>
<feGaussianBlur stdDeviation="1"/>
<feComposite in2="hardAlpha" operator="arithmetic" k2="-1" k3="1"/>
<feColorMatrix type="matrix" values="0 0 0 0 1 0 0 0 0 1 0 0 0 0 1 0 0 0 0.15 0"/>
<feBlend mode="normal" in2="shape" result="effect2_innerShadow_75_126"/>
</filter>
<linearGradient id="paint0_linear_75_126" x1="0" y1="0" x2="172.303" y2="10.6116" gradientUnits="userSpaceOnUse">
<stop stop-color="white" stop-opacity="0.3"/>
<stop offset="1" stop-color="white" stop-opacity="0.16"/>
</linearGradient>
</defs>
</svg>
