<svg width="170" height="48" viewBox="0 0 170 48" fill="none" xmlns="http://www.w3.org/2000/svg">
<g filter="url(#filter0_b_75_118)">
<rect width="170" height="48" rx="4" fill="white" fill-opacity="0.05"/>
<path d="M28.264 31V18.4H33.394C34.078 18.4 34.696 18.574 35.248 18.922C35.812 19.258 36.262 19.72 36.598 20.308C36.934 20.896 37.102 21.55 37.102 22.27C37.102 22.99 36.934 23.644 36.598 24.232C36.262 24.82 35.812 25.294 35.248 25.654C34.696 26.002 34.078 26.176 33.394 26.176H30.208V31H28.264ZM30.208 24.304H33.358C33.682 24.304 33.976 24.214 34.24 24.034C34.504 23.842 34.714 23.596 34.87 23.296C35.038 22.984 35.122 22.642 35.122 22.27C35.122 21.898 35.038 21.562 34.87 21.262C34.714 20.962 34.504 20.722 34.24 20.542C33.976 20.362 33.682 20.272 33.358 20.272H30.208V24.304ZM39.2402 31V17.68H41.0942V31H39.2402ZM47.182 31.18C46.402 31.18 45.688 30.964 45.04 30.532C44.404 30.1 43.894 29.512 43.51 28.768C43.126 28.024 42.934 27.184 42.934 26.248C42.934 25.3 43.126 24.46 43.51 23.728C43.906 22.984 44.434 22.402 45.094 21.982C45.766 21.562 46.516 21.352 47.344 21.352C47.836 21.352 48.286 21.424 48.694 21.568C49.102 21.712 49.456 21.916 49.756 22.18C50.068 22.432 50.32 22.726 50.512 23.062C50.716 23.398 50.842 23.758 50.89 24.142L50.476 23.998V21.55H52.348V31H50.476V28.75L50.908 28.624C50.836 28.948 50.686 29.266 50.458 29.578C50.242 29.878 49.96 30.148 49.612 30.388C49.276 30.628 48.898 30.82 48.478 30.964C48.07 31.108 47.638 31.18 47.182 31.18ZM47.668 29.47C48.232 29.47 48.73 29.332 49.162 29.056C49.594 28.78 49.93 28.402 50.17 27.922C50.422 27.43 50.548 26.872 50.548 26.248C50.548 25.636 50.422 25.09 50.17 24.61C49.93 24.13 49.594 23.752 49.162 23.476C48.73 23.2 48.232 23.062 47.668 23.062C47.116 23.062 46.624 23.2 46.192 23.476C45.772 23.752 45.436 24.13 45.184 24.61C44.944 25.09 44.824 25.636 44.824 26.248C44.824 26.872 44.944 27.43 45.184 27.922C45.436 28.402 45.772 28.78 46.192 29.056C46.624 29.332 47.116 29.47 47.668 29.47ZM56.3097 35.14L58.2177 30.73L58.2357 32.206L53.5197 21.55H55.6797L58.6317 28.498C58.6917 28.618 58.7637 28.804 58.8477 29.056C58.9317 29.296 59.0037 29.536 59.0637 29.776L58.5957 29.884C58.6917 29.632 58.7817 29.38 58.8657 29.128C58.9617 28.876 59.0517 28.624 59.1357 28.372L61.6017 21.55H63.7977L59.9097 31L58.3077 35.14H56.3097ZM70.6976 31V18.4H72.4436L80.1476 28.714L79.8596 28.876C79.8116 28.576 79.7696 28.252 79.7336 27.904C79.6976 27.544 79.6616 27.166 79.6256 26.77C79.6016 26.362 79.5776 25.936 79.5536 25.492C79.5416 25.036 79.5296 24.562 79.5176 24.07C79.5056 23.578 79.4996 23.068 79.4996 22.54V18.4H81.4436V31H79.6616L72.0836 21.064L72.2816 20.812C72.3416 21.544 72.3896 22.168 72.4256 22.684C72.4736 23.188 72.5096 23.62 72.5336 23.98C72.5696 24.328 72.5936 24.616 72.6056 24.844C72.6176 25.06 72.6236 25.24 72.6236 25.384C72.6356 25.528 72.6416 25.654 72.6416 25.762V31H70.6976ZM88.913 31.18C87.941 31.18 87.077 30.976 86.321 30.568C85.577 30.148 84.989 29.578 84.557 28.858C84.137 28.138 83.927 27.31 83.927 26.374C83.927 25.63 84.047 24.952 84.287 24.34C84.527 23.728 84.857 23.2 85.277 22.756C85.709 22.3 86.219 21.952 86.807 21.712C87.407 21.46 88.055 21.334 88.751 21.334C89.363 21.334 89.933 21.454 90.461 21.694C90.989 21.922 91.445 22.24 91.829 22.648C92.225 23.056 92.525 23.542 92.729 24.106C92.945 24.658 93.047 25.264 93.035 25.924L93.017 26.716H85.295L84.881 25.24H91.415L91.145 25.546V25.114C91.109 24.718 90.977 24.364 90.749 24.052C90.521 23.74 90.233 23.494 89.885 23.314C89.537 23.134 89.159 23.044 88.751 23.044C88.103 23.044 87.557 23.17 87.113 23.422C86.669 23.662 86.333 24.022 86.105 24.502C85.877 24.97 85.763 25.552 85.763 26.248C85.763 26.908 85.901 27.484 86.177 27.976C86.453 28.456 86.843 28.828 87.347 29.092C87.851 29.356 88.433 29.488 89.093 29.488C89.561 29.488 89.993 29.41 90.389 29.254C90.797 29.098 91.235 28.816 91.703 28.408L92.639 29.722C92.351 30.01 91.997 30.262 91.577 30.478C91.169 30.694 90.731 30.868 90.263 31C89.807 31.12 89.357 31.18 88.913 31.18ZM101.279 31L98.2192 27.022L97.9492 26.68L93.9712 21.55H96.3112L99.3172 25.474L99.6232 25.87L103.547 31H101.279ZM93.9892 31L97.7152 26.14L98.8132 27.454L96.1852 31H93.9892ZM99.7312 26.428L98.7052 25.132L101.027 21.55H103.223L99.7312 26.428ZM106.275 31V19.138H108.129V31H106.275ZM104.313 23.35V21.55H110.325V23.35H104.313Z" fill="white" fill-opacity="0.65"/>
<path d="M133.107 25.7907L128.701 23.1149C128.17 22.7922 127.5 23.1877 127.5 23.8242V29.1758C127.5 29.8123 128.17 30.2078 128.701 29.8851L133.107 27.2093C133.631 26.8911 133.631 26.1089 133.107 25.7907Z" fill="#333333"/>
<g filter="url(#filter1_bi_75_118)">
<path d="M130.35 26.4944C130.417 26.4559 130.5 26.504 130.5 26.581V27.8226C130.5 28.7318 131.505 29.2969 132.302 28.8359L138.911 25.0133C139.696 24.5587 139.696 23.4413 138.911 22.9867L132.302 19.1641C131.505 18.7031 130.5 19.2682 130.5 20.1774V21.419C130.5 21.496 130.417 21.5441 130.35 21.5056L126.302 19.1641C125.505 18.7031 124.5 19.2682 124.5 20.1774V27.8226C124.5 28.7318 125.505 29.2969 126.302 28.8359L130.35 26.4944Z" fill="#F1F1F1" fill-opacity="0.1"/>
<path d="M130.35 26.4944C130.417 26.4559 130.5 26.504 130.5 26.581V27.8226C130.5 28.7318 131.505 29.2969 132.302 28.8359L138.911 25.0133C139.696 24.5587 139.696 23.4413 138.911 22.9867L132.302 19.1641C131.505 18.7031 130.5 19.2682 130.5 20.1774V21.419C130.5 21.496 130.417 21.5441 130.35 21.5056L126.302 19.1641C125.505 18.7031 124.5 19.2682 124.5 20.1774V27.8226C124.5 28.7318 125.505 29.2969 126.302 28.8359L130.35 26.4944Z" fill="white"/>
<path d="M130.6 27.8226V26.581C130.6 26.4269 130.433 26.3307 130.3 26.4079L126.252 28.7493C125.519 29.1732 124.6 28.6519 124.6 27.8226V20.1774C124.6 19.3481 125.519 18.8268 126.252 19.2507L130.3 21.5921C130.433 21.6693 130.6 21.5731 130.6 21.419V20.1774C130.6 19.3481 131.519 18.8268 132.252 19.2507L138.861 23.0733C139.58 23.4893 139.58 24.5107 138.861 24.9267L132.252 28.7493C131.519 29.1732 130.6 28.6519 130.6 27.8226Z" stroke="#333333" stroke-width="0.2"/>
</g>
<rect x="0.5" y="0.5" width="169" height="47" rx="3.5" stroke="url(#paint0_linear_75_118)"/>
</g>
<defs>
<filter id="filter0_b_75_118" x="-4" y="-4" width="178" height="56" filterUnits="userSpaceOnUse" color-interpolation-filters="sRGB">
<feFlood flood-opacity="0" result="BackgroundImageFix"/>
<feGaussianBlur in="BackgroundImageFix" stdDeviation="2"/>
<feComposite in2="SourceAlpha" operator="in" result="effect1_backgroundBlur_75_118"/>
<feBlend mode="normal" in="SourceGraphic" in2="effect1_backgroundBlur_75_118" result="shape"/>
</filter>
<filter id="filter1_bi_75_118" x="121.5" y="16" width="21" height="16" filterUnits="userSpaceOnUse" color-interpolation-filters="sRGB">
<feFlood flood-opacity="0" result="BackgroundImageFix"/>
<feGaussianBlur in="BackgroundImageFix" stdDeviation="1.5"/>
<feComposite in2="SourceAlpha" operator="in" result="effect1_backgroundBlur_75_118"/>
<feBlend mode="normal" in="SourceGraphic" in2="effect1_backgroundBlur_75_118" result="shape"/>
<feColorMatrix in="SourceAlpha" type="matrix" values="0 0 0 0 0 0 0 0 0 0 0 0 0 0 0 0 0 0 127 0" result="hardAlpha"/>
<feOffset dy="0.5"/>
<feGaussianBlur stdDeviation="1"/>
<feComposite in2="hardAlpha" operator="arithmetic" k2="-1" k3="1"/>
<feColorMatrix type="matrix" values="0 0 0 0 1 0 0 0 0 1 0 0 0 0 1 0 0 0 0.15 0"/>
<feBlend mode="normal" in2="shape" result="effect2_innerShadow_75_118"/>
</filter>
<linearGradient id="paint0_linear_75_118" x1="0" y1="0" x2="172.303" y2="10.6116" gradientUnits="userSpaceOnUse">
<stop stop-color="white" stop-opacity="0.3"/>
<stop offset="1" stop-color="white" stop-opacity="0.16"/>
</linearGradient>
</defs>
</svg>
